<svg id="Check_Large_Blue" xmlns="http://www.w3.org/2000/svg" xmlns:xlink="http://www.w3.org/1999/xlink" width="30" height="30" viewBox="0 0 30 30">
  <defs>
    <clipPath id="clip-path">
      <path id="Clip_2" data-name="Clip 2" d="M0,0H11.25V10.5H0Z" fill="none"/>
    </clipPath>
  </defs>
  <circle id="Oval" cx="15" cy="15" r="15" fill="#76bfd0"/>
  <g id="Group_3" data-name="Group 3" transform="translate(9.75 9.75)">
    <path id="Clip_2-2" data-name="Clip 2" d="M0,0H11.25V10.5H0Z" fill="none"/>
    <g id="Group_3-2" data-name="Group 3" clip-path="url(#clip-path)">
      <path id="Fill_1" data-name="Fill 1" d="M3.686,10.5l-.024,0A.868.868,0,0,1,3,10.26L.263,7.647a.845.845,0,0,1-.02-1.206.87.87,0,0,1,1.22-.02L3.5,8.367,9.7.336A.87.87,0,0,1,10.91.175a.846.846,0,0,1,.163,1.2L4.284,10.165a.865.865,0,0,1-.6.331" transform="translate(0 0)" fill="#fff"/>
    </g>
  </g>
</svg>
