<svg xmlns="http://www.w3.org/2000/svg" width="120.667" height="34" viewBox="0 0 120.667 34">
  <g id="Edisoft-Colour" transform="translate(0 0)">
    <path id="Fill_1" data-name="Fill 1" d="M9,32.785a9.228,9.228,0,0,1-2.907-.443,7.674,7.674,0,0,1-1.265-.549,7.437,7.437,0,0,1-1.131-.762,7.81,7.81,0,0,1-.991-.971,8.814,8.814,0,0,1-.846-1.176A11.642,11.642,0,0,1,.627,25.929a18,18,0,0,1-.518-2.673,16.558,16.558,0,0,1-.09-2.661,16.239,16.239,0,0,1,.345-2.641,17.059,17.059,0,0,1,.789-2.611,10.718,10.718,0,0,1,1.473-2.634,9.3,9.3,0,0,1,2.019-1.945,8.815,8.815,0,0,1,2.441-1.2,9.147,9.147,0,0,1,2.737-.413,10.6,10.6,0,0,1,3.9.769,3.074,3.074,0,0,0,.3.093c.074.021.159.044.265.076V0h4.627l.011,32.369H15.158l-.362-.642-.073-.13c-.409.115-.812.24-1.2.362h0a18.336,18.336,0,0,1-2.495.653A12.655,12.655,0,0,1,9,32.785Zm2.8-20.216a6.23,6.23,0,0,0-6.167,4.592,13.729,13.729,0,0,0-.052,7.791A5.269,5.269,0,0,0,11,28.888a9.125,9.125,0,0,0,3.249-.642V13.29a3.942,3.942,0,0,0-2.258-.718Z" transform="translate(20.742 1.177)" fill="#646567"/>
    <path id="Fill_3" data-name="Fill 3" d="M10.3,23.628a12.873,12.873,0,0,1-1.465-.086,9.382,9.382,0,0,1-5.47-2.37A10.114,10.114,0,0,1,.5,15.808c-.166-.752-.281-1.355-.362-1.9A11.372,11.372,0,0,1,0,12.241,19.868,19.868,0,0,1,.333,8.371,12.43,12.43,0,0,1,1.476,5.053a11.042,11.042,0,0,1,.662-1.122,9.526,9.526,0,0,1,.755-.978,8.6,8.6,0,0,1,.846-.835,8.218,8.218,0,0,1,.937-.693A8.339,8.339,0,0,1,5.7.871,8.965,8.965,0,0,1,6.817.455,10.945,10.945,0,0,1,9.306.028C9.621.01,9.932,0,10.23,0a12.535,12.535,0,0,1,1.489.086,10.163,10.163,0,0,1,1.443.278,8.948,8.948,0,0,1,1.389.5,8.66,8.66,0,0,1,3.522,2.955,9.495,9.495,0,0,1,.765,1.331A11.163,11.163,0,0,1,19.4,6.616a18.317,18.317,0,0,1,.6,2.568,17,17,0,0,1,.208,2.574,16.755,16.755,0,0,1-.191,2.574,17.6,17.6,0,0,1-.595,2.57,11.562,11.562,0,0,1-.64,1.625,9.828,9.828,0,0,1-.821,1.389,8.586,8.586,0,0,1-2.11,2.094,8.826,8.826,0,0,1-2.606,1.221A10.73,10.73,0,0,1,10.3,23.628Zm-.16-20.462A4.057,4.057,0,0,0,6.351,5.408a8.85,8.85,0,0,0-.8,2.061,19.225,19.225,0,0,0-.3,7.062A9.04,9.04,0,0,0,6.54,18.51a4.038,4.038,0,0,0,3.534,1.916,5.917,5.917,0,0,0,.68-.041,4.111,4.111,0,0,0,3.455-2.776,13.568,13.568,0,0,0,.909-5.771c0-.174,0-.352.007-.523.007-.376.015-.764-.014-1.143A11.35,11.35,0,0,0,13.95,5.463a4.1,4.1,0,0,0-3.784-2.3Z" transform="translate(70.012 10.36)" fill="#646567"/>
    <path id="Fill_5" data-name="Fill 5" d="M10.667,23.758a14.974,14.974,0,0,1-3.588-.4A10.031,10.031,0,0,1,5,22.606a8.006,8.006,0,0,1-1.727-1.152A7.579,7.579,0,0,1,1.92,19.89a8.756,8.756,0,0,1-.946-1.983A19.047,19.047,0,0,1,.2,14.756a17.15,17.15,0,0,1-.194-3.144A16.7,16.7,0,0,1,.4,8.492a17.739,17.739,0,0,1,1-3.081,8.82,8.82,0,0,1,3.384-3.99A9.055,9.055,0,0,1,7.129.364,9.176,9.176,0,0,1,11.751.235a9.294,9.294,0,0,1,2.021.722,7.154,7.154,0,0,1,3.669,4.536,13.033,13.033,0,0,1,.579,3.353,17.062,17.062,0,0,1-.251,3.749H5.217a7.391,7.391,0,0,0,1.324,5.5,5.26,5.26,0,0,0,3.7,1.837c.469.042.968.062,1.526.062.778,0,1.572-.04,2.34-.079.479-.024.974-.049,1.459-.064a9.01,9.01,0,0,0,1.057-.118h0c.177-.027.361-.054.553-.079v3.274c-.248.053-.5.111-.742.167-.528.123-1.075.25-1.618.325-.8.11-1.457.187-2.074.241C11.992,23.725,11.314,23.758,10.667,23.758ZM9.351,3.205A4,4,0,0,0,6.82,4.09,4.318,4.318,0,0,0,5.5,6.424a11.017,11.017,0,0,0-.317,3.044h8.462c-.019-.327-.028-.651-.036-.963a13.692,13.692,0,0,0-.145-1.947A4.11,4.11,0,0,0,9.351,3.205Z" transform="translate(0 10.242)" fill="#646567"/>
    <path id="Fill_8" data-name="Fill 8" d="M2.757,13.172l.027,19.545H7.512V13.085H12.1V9.853H7.514A19.5,19.5,0,0,1,7.7,5.408a2.188,2.188,0,0,1,1.89-1.8,20.457,20.457,0,0,1,2.541-.121c.469-.008.939.05,1.489.084V.528A14.8,14.8,0,0,0,7.665.145,5.267,5.267,0,0,0,2.98,4.817a24.776,24.776,0,0,0-.219,3.208c-.028.583,0,1.169,0,1.814L0,10.381v2.647Z" transform="translate(92.161 0.803)" fill="#646567"/>
    <path id="Fill_10" data-name="Fill 10" d="M2.692,24.009a12.975,12.975,0,0,0,.421,3.068A4.889,4.889,0,0,0,7.3,30.889a23.654,23.654,0,0,0,4.091.126,17.192,17.192,0,0,0,2.153-.293v-3.1c-1.269,0-2.382.055-3.487-.013a2.443,2.443,0,0,1-2.512-2.46l.042-14.117h6.087V7.811H7.478V0L2.623,1.937V7.823L0,8.33v2.66l2.67.143Z" transform="translate(106.995 2.848)" fill="#646567"/>
    <path id="Fill_13" data-name="Fill 13" d="M0,22.848V19.383c.436.079.786.125,1.127.208a16.839,16.839,0,0,0,5.737.5A2.675,2.675,0,0,0,9.4,16.669a3.038,3.038,0,0,0-1.675-2.1c-1.1-.609-2.249-1.15-3.317-1.816a13.363,13.363,0,0,1-2.661-1.975A6.427,6.427,0,0,1,4.466.438,15.361,15.361,0,0,1,12.976.8v3.3c-1.2-.2-2.352-.462-3.516-.569A10.076,10.076,0,0,0,6.7,3.587,2.342,2.342,0,0,0,5.449,7.66a8.462,8.462,0,0,0,1.8,1.287c1.085.641,2.217,1.2,3.309,1.833a6.456,6.456,0,0,1,3.274,7.835,6.136,6.136,0,0,1-4.506,4.5c-3.09.916-6.155.525-9.325-.262" transform="translate(53.216 10.359)" fill="#646567"/>
    <path id="Fill_15" data-name="Fill 15" d="M4.706,24.529V0a8.878,8.878,0,0,0-2.95,1.366A3.778,3.778,0,0,0,0,4.732v19.8Z" transform="translate(44.343 9.025)" fill="#646567"/>
    <path id="Fill_17" data-name="Fill 17" d="M4.69,6.921V0A9.047,9.047,0,0,0,1.148,1.441,2.164,2.164,0,0,0,0,3.036V9.695A10.267,10.267,0,0,1,4.69,6.921" transform="translate(44.343 0)" fill="#f15c25"/>
  </g>
</svg>
